<svg xmlns="http://www.w3.org/2000/svg" version="1.1" xmlns:xlink="http://www.w3.org/1999/xlink" xmlns:svgjs="http://svgjs.dev/svgjs" width="1000" height="1000" viewBox="0 0 1000 1000"><rect width="1000" height="1000" fill="#000000"></rect><g transform="matrix(0.7,0,0,0.7,149.57576949107596,388.7239531426822)"><svg viewBox="0 0 396 126" data-background-color="#5f1f61" preserveAspectRatio="xMidYMid meet" height="318" width="1000" xmlns="http://www.w3.org/2000/svg" xmlns:xlink="http://www.w3.org/1999/xlink"><g id="tight-bounds" transform="matrix(1,0,0,1,0.23999333339759232,-0.013558382650330714)"><svg viewBox="0 0 395.52 126.02711676530068" height="126.02711676530068" width="395.52"><g><svg viewBox="0 0 530.7394941825773 169.1129859559676" height="126.02711676530068" width="395.52"><g transform="matrix(1,0,0,1,135.2194941825774,43.76706076477406)"><svg viewBox="0 0 395.52 81.57886442641947" height="81.57886442641947" width="395.52"><g id="textblocktransform"><svg viewBox="0 0 395.52 81.57886442641947" height="81.57886442641947" width="395.52" id="textblock"><g><svg viewBox="0 0 395.52 81.57886442641947" height="81.57886442641947" width="395.52"><g transform="matrix(1,0,0,1,0,0)"><svg width="395.52" viewBox="1.2999999523162842 -32.79999923706055 215.739990234375 44.5" height="81.57886442641947" data-palette-color="#f8c04b"><path d="M11.05 0.6Q8.6 0.6 6.55 0.15 4.5-0.3 3.15-0.83 1.8-1.35 1.8-1.4L1.8-1.4 1.3-2.2Q1.35-2.55 1.55-3.75 1.75-4.95 1.98-6.93 2.2-8.9 2.25-10.6L2.25-10.6 7.3-10.95Q7.3-7.45 8.45-6.1 9.6-4.75 12.35-4.75L12.35-4.75Q14.35-4.75 15.55-5.58 16.75-6.4 16.75-7.85L16.75-7.85Q16.75-9.35 15.33-10.35 13.9-11.35 10.9-12.7L10.9-12.7Q10.5-12.9 10.13-13.08 9.75-13.25 9.45-13.4L9.45-13.4Q5.85-15.1 3.75-17.15 1.65-19.2 1.65-22.5L1.65-22.5Q1.65-25.5 3.45-27.85 5.25-30.2 8.47-31.5 11.7-32.8 15.85-32.8L15.85-32.8Q18.15-32.8 20.15-32.5 22.15-32.2 23.35-31.88 24.55-31.55 24.85-31.45L24.85-31.45 25.3-30.6Q25.25-30.3 25.03-29.15 24.8-28 24.5-25.98 24.2-23.95 24.05-21.95L24.05-21.95 19.4-21.6 18.9-22 18.95-23.35Q18.95-25.35 17.9-26.25 16.85-27.15 14.6-27.15L14.6-27.15Q12.8-27.15 11.65-26.33 10.5-25.5 10.5-24.15L10.5-24.15Q10.5-23.05 11.35-22.2 12.2-21.35 13.35-20.73 14.5-20.1 16.95-19L16.95-19Q19.65-17.8 21.45-16.7 23.25-15.6 24.48-13.85 25.7-12.1 25.7-9.65L25.7-9.65Q25.7-6.55 23.9-4.23 22.1-1.9 18.8-0.65 15.5 0.6 11.05 0.6L11.05 0.6ZM44.15 0.35L43.85-0.05 44.1-3.6Q45.8-3.75 46.5-3.9 47.2-4.05 47.45-4.35 47.7-4.65 47.7-5.35L47.7-5.35Q47.7-5.5 47.5-6.7L47.5-6.7 46.75-9.7Q44.15-9.8 42.5-9.8L42.5-9.8Q41.35-9.8 39.15-9.6L39.15-9.6 38.05-9.5 37.15-6.4Q36.9-5.3 36.9-5L36.9-5Q36.9-4.25 37.32-3.98 37.75-3.7 38.9-3.7L38.9-3.7 40.7-3.7 41-3.3 40.6 0.25Q39.85 0.2 37.47 0.13 35.1 0.05 33.15 0.05L33.15 0.05 26.85 0.1 27.2-3.65Q28.25-3.85 28.95-4.58 29.65-5.3 30.15-6.7L30.15-6.7 38.65-31.95 48.8-32.75 49.45-32.35Q50.2-29.4 52.52-20.45 54.85-11.5 56.2-7.05L56.2-7.05Q56.7-5.3 57.47-4.53 58.25-3.75 59.7-3.65L59.7-3.65 60-3.2 59.6 0.15Q58.9 0.15 57.02 0.1 55.15 0.05 53.1 0.05L53.1 0.05Q50.3 0.05 47.6 0.18 44.9 0.3 44.15 0.35L44.15 0.35ZM39.45-14.6L42.55-14.6Q42.8-14.6 45.8-14.75L45.8-14.75 43.4-24.85 42.55-24.85 39.45-14.6ZM75.55 0.6Q74.75 0.5 72.22 0.25 69.69 0 67.84 0L67.84 0Q66.14 0 63.94 0.18 61.74 0.35 61.09 0.45L61.09 0.45 61.49-3.5Q63.54-3.85 64.24-4.7 64.94-5.55 64.94-7.65L64.94-7.65 64.94-25.7Q64.94-27.3 64.64-27.85 64.34-28.4 63.49-28.4L63.49-28.4Q62.94-28.4 62.49-28.35 62.04-28.3 61.89-28.3L61.89-28.3 61.49-28.85 61.94-32.35Q62.74-32.35 64.82-32.27 66.89-32.2 68.8-32.2L68.8-32.2Q71.05-32.2 73.5-32.3 75.94-32.4 76.89-32.45L76.89-32.45Q84.64-32.45 88.8-28.58 92.94-24.7 92.94-17.45L92.94-17.45Q92.94-12.1 90.77-8 88.59-3.9 84.64-1.65 80.69 0.6 75.55 0.6L75.55 0.6ZM74.59-27.3Q73.89-27.3 73.64-27.03 73.39-26.75 73.34-26.05L73.34-26.05Q72.75-15.55 72.75-7.65L72.75-7.65Q72.75-5.8 73.37-5.18 74-4.55 75.89-4.55L75.89-4.55Q79.8-4.55 81.69-7.28 83.59-10 83.59-15.75L83.59-15.75Q83.59-21.95 81.47-24.63 79.34-27.3 74.59-27.3L74.59-27.3ZM110.19 0.35L109.89-0.05 110.14-3.6Q111.84-3.75 112.54-3.9 113.24-4.05 113.49-4.35 113.74-4.65 113.74-5.35L113.74-5.35Q113.74-5.5 113.54-6.7L113.54-6.7 112.79-9.7Q110.19-9.8 108.54-9.8L108.54-9.8Q107.39-9.8 105.19-9.6L105.19-9.6 104.09-9.5 103.19-6.4Q102.94-5.3 102.94-5L102.94-5Q102.94-4.25 103.37-3.98 103.79-3.7 104.94-3.7L104.94-3.7 106.74-3.7 107.04-3.3 106.64 0.25Q105.89 0.2 103.52 0.13 101.14 0.05 99.19 0.05L99.19 0.05 92.89 0.1 93.24-3.65Q94.29-3.85 94.99-4.58 95.69-5.3 96.19-6.7L96.19-6.7 104.69-31.95 114.84-32.75 115.49-32.35Q116.24-29.4 118.57-20.45 120.89-11.5 122.24-7.05L122.24-7.05Q122.74-5.3 123.52-4.53 124.29-3.75 125.74-3.65L125.74-3.65 126.04-3.2 125.64 0.15Q124.94 0.15 123.07 0.1 121.19 0.05 119.14 0.05L119.14 0.05Q116.34 0.05 113.64 0.18 110.94 0.3 110.19 0.35L110.19 0.35ZM105.49-14.6L108.59-14.6Q108.84-14.6 111.84-14.75L111.84-14.75 109.44-24.85 108.59-24.85 105.49-14.6ZM158.44 11.7Q156.19 11.7 154.22 10.88 152.24 10.05 149.26 7.78 146.29 5.5 140.64 0.6L140.64 0.6Q133.74 0.6 129.91-3.6 126.09-7.8 126.09-15.35L126.09-15.35Q126.09-20.75 128.04-24.68 129.99-28.6 133.69-30.7 137.39-32.8 142.44-32.8L142.44-32.8Q149.54-32.8 153.34-28.7 157.14-24.6 157.14-17L157.14-17Q157.14-11.5 154.66-7.3 152.19-3.1 147.99-1.1L147.99-1.1 147.99-0.55Q155.24 4.6 160.49 4.6L160.49 4.6Q161.89 4.6 163.19 4.4 164.49 4.2 164.84 4.1L164.84 4.1 165.34 4.5 165.99 7.15Q165.54 7.5 164.01 8.6 162.49 9.7 160.81 10.7 159.14 11.7 158.44 11.7L158.44 11.7ZM141.79-4.55Q144.74-4.55 146.26-6.98 147.79-9.4 147.79-14.2L147.79-14.2Q147.79-20.8 146.16-23.95 144.54-27.1 141.19-27.1L141.19-27.1Q135.34-27.1 135.34-17.55L135.34-17.55Q135.34-10.95 136.97-7.75 138.59-4.55 141.79-4.55L141.79-4.55ZM174.64 0.35L174.34-0.05 174.59-3.6Q176.29-3.75 176.99-3.9 177.69-4.05 177.94-4.35 178.19-4.65 178.19-5.35L178.19-5.35Q178.19-5.5 177.99-6.7L177.99-6.7 177.24-9.7Q174.64-9.8 172.99-9.8L172.99-9.8Q171.84-9.8 169.64-9.6L169.64-9.6 168.54-9.5 167.64-6.4Q167.39-5.3 167.39-5L167.39-5Q167.39-4.25 167.81-3.98 168.24-3.7 169.39-3.7L169.39-3.7 171.19-3.7 171.49-3.3 171.09 0.25Q170.34 0.2 167.96 0.13 165.59 0.05 163.64 0.05L163.64 0.05 157.34 0.1 157.69-3.65Q158.74-3.85 159.44-4.58 160.14-5.3 160.64-6.7L160.64-6.7 169.14-31.95 179.29-32.75 179.94-32.35Q180.69-29.4 183.01-20.45 185.34-11.5 186.69-7.05L186.69-7.05Q187.19-5.3 187.96-4.53 188.74-3.75 190.19-3.65L190.19-3.65 190.49-3.2 190.09 0.15Q189.39 0.15 187.51 0.1 185.64 0.05 183.59 0.05L183.59 0.05Q180.79 0.05 178.09 0.18 175.39 0.3 174.64 0.35L174.64 0.35ZM169.94-14.6L173.04-14.6Q173.29-14.6 176.29-14.75L176.29-14.75 173.89-24.85 173.04-24.85 169.94-14.6ZM193.34 0.35L193.74-3.5Q195.94-3.7 196.94-4.1 197.94-4.5 198.31-5.43 198.69-6.35 198.69-8.3L198.69-8.3 198.69-27.4Q196.49-27.35 195.54-26.9 194.59-26.45 194.16-25.18 193.74-23.9 193.44-20.75L193.44-20.75 188.44-20.4Q188.84-26.25 188.94-32.15L188.94-32.15 189.54-32.75 194.94-32.2 210.54-32.2 216.09-32.75 216.64-32.15Q216.84-24.4 217.04-20.75L217.04-20.75 212.04-20.4Q211.69-23.85 211.31-25.18 210.94-26.5 210.06-26.93 209.19-27.35 207.04-27.4L207.04-27.4Q206.64-17.4 206.64-7.25L206.64-7.25Q206.64-5.4 207.26-4.63 207.89-3.85 209.34-3.85L209.34-3.85Q210.39-3.85 211.94-4L211.94-4 212.14-3.7 211.69 0.25Q204.34 0 202.39 0L202.39 0Q198.94 0 193.34 0.35L193.34 0.35Z" opacity="1" transform="matrix(1,0,0,1,0,0)" fill="#ffffff" class="undefined-text-0" data-fill-palette-color="primary" id="text-0"></path></svg></g></svg></g></svg></g></svg></g><g><svg viewBox="0 0 115.960682184246 169.1129859559676" height="169.1129859559676" width="115.960682184246"><g><svg xmlns="http://www.w3.org/2000/svg" xmlns:xlink="http://www.w3.org/1999/xlink" version="1.1" x="0" y="0" viewBox="20.829652786254883 8.197998046875 58.34137725830078 85.08301544189453" enable-background="new 0 0 100 100" xml:space="preserve" height="169.1129859559676" width="115.960682184246" class="icon-icon-0" data-fill-palette-color="accent" id="icon-0"><path d="M78.953 60.875c-0.045-0.045-0.056-0.051-0.082-0.071-0.021-0.015-0.042-0.031-0.061-0.043-0.041-0.027-0.08-0.049-0.119-0.071-0.079-0.042-0.156-0.07-0.234-0.098-0.156-0.052-0.311-0.08-0.46-0.091-0.301-0.022-0.588 0.009-0.858 0.067-0.54 0.119-1.021 0.336-1.476 0.58-0.848 0.459-1.598 1.043-2.303 1.644 0.046-0.068 0.093-0.135 0.137-0.205 0.136-0.204 0.26-0.413 0.389-0.621 0.128-0.208 0.255-0.417 0.371-0.632 0.118-0.214 0.239-0.426 0.354-0.643 0.114-0.217 0.227-0.435 0.332-0.657 0.053-0.112 0.108-0.222 0.158-0.335 0.05-0.116 0.1-0.223 0.15-0.347l0.115-0.282-0.235-0.2c-0.04-0.033-0.048-0.038-0.068-0.052l-0.049-0.032c-0.032-0.019-0.063-0.036-0.093-0.051-0.061-0.031-0.12-0.053-0.179-0.074-0.119-0.04-0.236-0.063-0.351-0.078-0.229-0.027-0.45-0.015-0.659 0.017-0.419 0.066-0.796 0.21-1.147 0.38-0.702 0.343-1.307 0.795-1.877 1.274-0.282 0.243-0.558 0.49-0.821 0.749l-0.781 0.75c-0.346 0.334-0.688 0.672-1.029 1.01 0.042-0.07 0.086-0.139 0.127-0.21 0.129-0.217 0.245-0.443 0.361-0.668 0.056-0.115 0.114-0.228 0.166-0.345 0.054-0.117 0.104-0.23 0.157-0.361l0.116-0.284-0.237-0.193-0.036-0.029-0.024-0.018-0.042-0.028c-0.028-0.018-0.053-0.031-0.079-0.046-0.052-0.026-0.102-0.048-0.152-0.068-0.101-0.039-0.199-0.063-0.297-0.083-0.196-0.034-0.386-0.038-0.568-0.022-0.365 0.029-0.696 0.131-1.008 0.252-0.622 0.251-1.16 0.606-1.667 0.983-0.25 0.193-0.496 0.39-0.729 0.598-0.236 0.206-0.463 0.418-0.686 0.635l-0.659 0.631-0.651 0.637c-0.43 0.431-0.861 0.855-1.285 1.287-0.41 0.415-0.811 0.84-1.213 1.264 0.067-0.097 0.133-0.194 0.196-0.294 0.143-0.227 0.273-0.46 0.399-0.698 0.253-0.475 0.453-0.975 0.634-1.482 0.091-0.254 0.166-0.513 0.235-0.774 0.035-0.131 0.068-0.263 0.097-0.396 0.029-0.136 0.054-0.262 0.078-0.413l0.065-0.424-0.43-0.06c-0.058-0.008-0.078-0.01-0.111-0.012l-0.088-0.003c-0.057 0-0.112 0.001-0.166 0.005-0.107 0.007-0.211 0.021-0.313 0.039-0.203 0.036-0.398 0.09-0.586 0.157-0.023 0.008-0.045 0.019-0.067 0.027 0.012-0.029 0.023-0.058 0.035-0.088 0.031-0.085 0.066-0.169 0.096-0.256 0.032-0.086 0.057-0.173 0.082-0.263 0.012-0.045 0.026-0.088 0.036-0.134l0.031-0.143 0.09-0.419L59.527 61c-0.057-0.008-0.077-0.009-0.11-0.011l-0.086-0.002c-0.056-0.001-0.109 0-0.162 0.004-0.105 0.006-0.207 0.019-0.307 0.036-0.199 0.035-0.39 0.087-0.574 0.151-0.368 0.128-0.709 0.304-1.026 0.506-0.455 0.291-0.86 0.635-1.23 1.006l0.099-0.204 0.243-0.557c0.083-0.186 0.155-0.375 0.226-0.566 0.07-0.191 0.149-0.379 0.208-0.576 0.06-0.196 0.13-0.389 0.182-0.588 0.05-0.201 0.113-0.396 0.151-0.603 0.042-0.204 0.084-0.408 0.11-0.62 0.017-0.104 0.029-0.21 0.036-0.319 0.009-0.107 0.019-0.214 0.017-0.327l0.001-0.167-0.011-0.173c-0.002-0.056-0.012-0.119-0.021-0.18-0.004-0.029-0.008-0.061-0.018-0.097-0.008-0.036-0.012-0.063-0.034-0.126l-0.091-0.265-0.3-0.019c-0.129-0.008-0.258-0.018-0.388-0.012-0.129 0.001-0.26 0.014-0.39 0.029-0.129 0.018-0.257 0.044-0.384 0.073-0.126 0.033-0.251 0.069-0.373 0.116-0.244 0.089-0.475 0.204-0.691 0.337-0.217 0.132-0.418 0.285-0.604 0.448-0.187 0.164-0.357 0.341-0.515 0.524-0.034 0.04-0.064 0.081-0.097 0.121 0.001-0.003 0.003-0.007 0.004-0.011 0.052-0.134 0.078-0.282 0.117-0.423 0.018-0.071 0.037-0.143 0.047-0.219l0.035-0.227c0.011-0.075 0.015-0.16 0.019-0.24 0.003-0.039 0.002-0.084 0-0.132l-0.003-0.07c0-0.017-0.009-0.069-0.015-0.102l-0.057-0.304-0.349-0.028c-0.397-0.032-0.791 0.062-1.132 0.209-0.34 0.154-0.641 0.355-0.904 0.582-0.266 0.224-0.5 0.471-0.713 0.728-0.215 0.256-0.409 0.523-0.59 0.796-0.361 0.545-0.667 1.115-0.942 1.692-0.092 0.193-0.178 0.387-0.264 0.581l0.212-0.736c0.038-0.136 0.081-0.27 0.113-0.407l0.1-0.409c0.067-0.273 0.134-0.547 0.194-0.822 0.063-0.275 0.119-0.551 0.171-0.829 0.056-0.277 0.102-0.552 0.146-0.839l0.048-0.307-0.284-0.136c-0.047-0.022-0.056-0.025-0.079-0.034l-0.056-0.019c-0.035-0.011-0.069-0.02-0.103-0.026-0.066-0.015-0.129-0.022-0.192-0.026-0.125-0.009-0.244-0.003-0.359 0.011-0.229 0.033-0.439 0.1-0.633 0.184-0.389 0.17-0.718 0.404-1.014 0.657-0.593 0.509-1.065 1.1-1.495 1.706-0.212 0.306-0.417 0.614-0.606 0.931l-0.567 0.922c-0.375 0.616-0.746 1.233-1.112 1.855l-0.554 0.924-0.548 0.927c-0.359 0.623-0.719 1.245-1.085 1.864-0.184 0.309-0.361 0.623-0.538 0.938-0.175 0.315-0.356 0.626-0.536 0.939-0.178 0.314-0.361 0.625-0.533 0.943-0.023 0.042-0.045 0.085-0.069 0.127-0.5 0.464-0.994 0.934-1.473 1.421-0.689 0.704-1.354 1.434-1.963 2.215-0.305 0.391-0.594 0.795-0.855 1.221-0.132 0.211-0.254 0.43-0.37 0.653-0.117 0.225-0.215 0.45-0.318 0.67-0.821 1.794-1.421 3.693-1.697 5.648-0.137 0.976-0.189 1.964-0.156 2.948 0.038 0.983 0.157 1.964 0.366 2.923 0.412 1.924 1.164 3.755 2.101 5.469-0.89-1.741-1.575-3.589-1.939-5.502-0.186-0.956-0.283-1.926-0.298-2.896-0.011-0.971 0.061-1.941 0.217-2.898 0.313-1.915 0.944-3.769 1.788-5.511 0.109-0.22 0.211-0.441 0.324-0.647 0.115-0.208 0.236-0.414 0.368-0.614 0.261-0.401 0.546-0.789 0.848-1.166 0.604-0.752 1.267-1.461 1.957-2.144 1.381-1.364 2.864-2.63 4.381-3.853 1.519-1.222 3.077-2.396 4.648-3.555l0.58-0.428c-0.008 0.051-0.016 0.102-0.022 0.152 0.027-0.064 0.052-0.13 0.079-0.194l1.726-1.273 0.589-0.448 0.573-0.455c0.373-0.287 0.765-0.55 1.172-0.767 0.182-0.097 0.372-0.187 0.56-0.26 0 0.005-0.001 0.01-0.002 0.015 0.005-0.006 0.008-0.013 0.013-0.02 0.225-0.087 0.447-0.151 0.654-0.173 0.092-0.008 0.179-0.005 0.241 0.009 0.063 0.015 0.093 0.036 0.11 0.055 0.037 0.027 0.076 0.182 0.049 0.375-0.051 0.391-0.236 0.832-0.442 1.245-0.21 0.421-0.45 0.824-0.711 1.232-1.041 1.642-2.184 3.23-3.164 4.969-0.481 0.872-0.932 1.789-1.164 2.82-0.112 0.514-0.16 1.063-0.082 1.613 0.076 0.55 0.286 1.088 0.595 1.543 0.307 0.458 0.699 0.835 1.113 1.156 0.104 0.08 0.21 0.156 0.317 0.229 0.106 0.073 0.227 0.151 0.329 0.213l0.157 0.095 0.19 0.104c0.125 0.062 0.252 0.119 0.383 0.167 0.521 0.193 1.069 0.27 1.598 0.267 0.53-0.001 1.048-0.071 1.549-0.178 1.004-0.217 1.948-0.576 2.86-0.981 0.911-0.409 1.788-0.875 2.645-1.37 1.713-0.991 3.345-2.096 4.936-3.251 1.591-1.154 3.141-2.359 4.667-3.59 1.526-1.232 3.028-2.492 4.514-3.769 0.729-0.633 1.477-1.222 2.29-1.67 0.403-0.221 0.823-0.408 1.239-0.501 0.207-0.047 0.412-0.067 0.599-0.055 0.043 0.003 0.085 0.009 0.125 0.016-0.17 0.335-0.353 0.674-0.541 1.004-0.261 0.463-0.534 0.921-0.815 1.373-0.567 0.902-1.155 1.793-1.788 2.653-0.306 0.437-0.641 0.854-0.96 1.281-0.33 0.419-0.666 0.835-1.003 1.249-0.349 0.403-0.688 0.817-1.045 1.214-0.361 0.392-0.711 0.799-1.082 1.18-0.373 0.38-0.73 0.769-1.116 1.144l-1.157 1.117-2.354 2.208c-1.573 1.462-3.176 2.887-4.862 4.207-1.685 1.317-3.453 2.531-5.33 3.552-0.938 0.51-1.902 0.971-2.891 1.375-0.986 0.409-1.997 0.76-3.027 1.045-1.03 0.286-2.08 0.505-3.138 0.657l-0.801 0.102c-0.266 0.031-0.541 0.066-0.807 0.121-0.535 0.11-1.066 0.278-1.544 0.558-0.478 0.276-0.892 0.682-1.138 1.181-0.252 0.497-0.329 1.059-0.308 1.601 0.022 0.545 0.14 1.079 0.307 1.592 0.169 0.513 0.384 1.011 0.649 1.479-0.25-0.477-0.449-0.979-0.601-1.495-0.15-0.515-0.249-1.046-0.254-1.579-0.004-0.53 0.091-1.067 0.34-1.529 0.244-0.465 0.639-0.834 1.098-1.086 0.458-0.256 0.973-0.405 1.492-0.499 0.262-0.048 0.523-0.075 0.792-0.1l0.804-0.077c1.079-0.122 2.147-0.312 3.201-0.569 1.054-0.257 2.091-0.583 3.107-0.968 1.013-0.391 2.002-0.843 2.966-1.343 1.927-1.002 3.745-2.202 5.476-3.504 1.731-1.304 3.377-2.713 4.985-4.154 0.806-0.719 1.597-1.451 2.388-2.182 0.403-0.377 0.78-0.747 1.172-1.121 0.388-0.374 0.763-0.777 1.145-1.163 0.381-0.39 0.736-0.799 1.105-1.197 0.364-0.402 0.71-0.821 1.066-1.231 0.345-0.419 0.687-0.84 1.025-1.266 0.326-0.434 0.668-0.856 0.981-1.3 0.647-0.872 1.25-1.778 1.832-2.696 0.29-0.46 0.57-0.927 0.839-1.401 0.273-0.476 0.527-0.949 0.774-1.458l0.133-0.275L78.953 60.875zM74.567 59.538C74.568 59.538 74.568 59.539 74.567 59.538L74.567 59.538zM57.741 62.43c0.268-0.174 0.55-0.32 0.838-0.422 0.137-0.049 0.275-0.086 0.412-0.112-0.007 0.162-0.024 0.324-0.029 0.491-0.004 0.086-0.005 0.175-0.012 0.261 0 0.01 0 0.021 0 0.031-0.107 0.06-0.212 0.123-0.315 0.188-0.645 0.421-1.191 0.945-1.679 1.505-0.242 0.282-0.469 0.573-0.686 0.871l-0.632 0.862-1.243 1.734c-0.41 0.579-0.821 1.156-1.236 1.727l-0.312 0.429-0.316 0.423c-0.21 0.282-0.425 0.562-0.646 0.834-0.222 0.272-0.444 0.543-0.673 0.811-0.233 0.262-0.469 0.523-0.713 0.777-0.12 0.129-0.245 0.254-0.373 0.375-0.128 0.121-0.25 0.25-0.384 0.367-0.15 0.14-0.305 0.275-0.461 0.41-0.167-0.249-0.29-0.518-0.369-0.801 0.479-0.271 0.931-0.604 1.341-0.982 0.265-0.239 0.507-0.501 0.742-0.769s0.458-0.545 0.666-0.833c0.42-0.569 0.809-1.156 1.183-1.744l1.108-1.762c0.367-0.585 0.741-1.164 1.124-1.734l0.288-0.426c0.098-0.14 0.198-0.295 0.294-0.422 0.196-0.273 0.406-0.534 0.625-0.785C56.718 63.233 57.203 62.777 57.741 62.43zM52.743 57.725L52.743 57.725C52.74 57.727 52.74 57.708 52.743 57.725zM46.773 63.942c-1.559 1.184-3.108 2.386-4.618 3.638-0.639 0.529-1.269 1.07-1.891 1.621 0.21-0.257 0.406-0.523 0.602-0.79 0.216-0.29 0.432-0.581 0.64-0.876l0.631-0.884 0.604-0.901 0.593-0.909c0.193-0.306 0.394-0.608 0.582-0.916 0.375-0.616 0.745-1.234 1.111-1.855 0.183-0.31 0.36-0.627 0.545-0.931 0.18-0.303 0.372-0.596 0.57-0.883 0.4-0.569 0.836-1.114 1.337-1.548 0.249-0.217 0.516-0.403 0.789-0.523 0.131-0.058 0.262-0.098 0.387-0.118l-0.044 0.374-0.107 0.823c-0.068 0.55-0.155 1.098-0.235 1.647l-0.125 0.825c-0.048 0.273-0.087 0.548-0.132 0.823-0.025 0.167-0.053 0.334-0.081 0.502L46.773 63.942zM51.514 60.401c-0.451 0.25-0.87 0.54-1.267 0.855l-0.569 0.464-0.572 0.448-0.795 0.604c0.003-0.011 0.007-0.021 0.011-0.032 0.048-0.047 0.096-0.095 0.142-0.144 0.109-0.12 0.217-0.241 0.318-0.366 0.202-0.25 0.4-0.501 0.592-0.754 0.384-0.505 0.756-1.009 1.144-1.487 0.193-0.239 0.392-0.471 0.596-0.691 0.204-0.22 0.416-0.427 0.635-0.61 0.222-0.181 0.449-0.344 0.686-0.453 0.108-0.053 0.217-0.093 0.327-0.123-0.001 0.091-0.002 0.181-0.012 0.277-0.013 0.13-0.014 0.26-0.034 0.394-0.017 0.132-0.034 0.266-0.047 0.401-0.005 0.068-0.021 0.133-0.03 0.2l-0.029 0.202c-0.011 0.067-0.018 0.136-0.026 0.204-0.007 0.054-0.013 0.106-0.021 0.161-0.117 0.033-0.23 0.072-0.34 0.114C51.974 60.162 51.74 60.276 51.514 60.401zM48.898 71.538c0.189-0.883 0.598-1.749 1.054-2.587 0.929-1.677 2.061-3.279 3.102-4.947 0.262-0.417 0.521-0.857 0.744-1.313 0.219-0.462 0.433-0.932 0.51-1.515 0.016-0.147 0.021-0.305-0.009-0.479-0.029-0.172-0.104-0.371-0.253-0.532-0.149-0.162-0.35-0.252-0.524-0.289-0.061-0.013-0.12-0.02-0.177-0.024 0.038-0.032 0.076-0.065 0.114-0.097 0.354-0.288 0.695-0.568 1.052-0.805 0.178-0.119 0.358-0.227 0.542-0.322 0.091-0.048 0.184-0.093 0.278-0.132 0.092-0.042 0.187-0.079 0.282-0.112 0.095-0.033 0.191-0.061 0.287-0.089 0.097-0.023 0.194-0.047 0.293-0.063 0.083-0.015 0.168-0.028 0.253-0.036l0 0.003 0.003 0.132c0.005 0.087 0 0.18-0.003 0.271-0.001 0.091-0.008 0.184-0.019 0.277-0.013 0.186-0.042 0.374-0.073 0.563-0.025 0.188-0.074 0.377-0.109 0.566-0.037 0.189-0.093 0.376-0.139 0.565-0.044 0.189-0.107 0.375-0.161 0.563-0.055 0.188-0.11 0.375-0.178 0.561l-0.188 0.561-0.208 0.555c-0.071 0.184-0.136 0.372-0.215 0.553-0.098 0.229-0.188 0.462-0.283 0.694l-0.256 0.349-0.307 0.432c-0.199 0.291-0.396 0.582-0.587 0.877-0.189 0.296-0.375 0.594-0.559 0.893-0.363 0.601-0.708 1.208-1.048 1.814-0.34 0.606-0.667 1.214-1.02 1.802-0.178 0.293-0.355 0.585-0.545 0.868-0.189 0.284-0.392 0.557-0.602 0.827s-0.441 0.521-0.68 0.771c-0.125 0.128-0.255 0.252-0.388 0.375-0.018-0.077-0.036-0.154-0.047-0.233C48.775 72.418 48.805 71.978 48.898 71.538zM68.713 66.655c-1.52 1.221-3.062 2.413-4.638 3.552-1.577 1.136-3.187 2.227-4.856 3.2-0.835 0.485-1.686 0.939-2.558 1.333-0.871 0.391-1.766 0.729-2.674 0.928-0.902 0.197-1.841 0.25-2.639-0.044-0.099-0.037-0.195-0.08-0.289-0.125l-0.132-0.071-0.157-0.095c-0.106-0.064-0.19-0.12-0.287-0.185-0.094-0.064-0.187-0.13-0.276-0.199-0.334-0.257-0.633-0.546-0.865-0.872 0.024-0.013 0.048-0.025 0.073-0.038 0.16-0.083 0.309-0.184 0.464-0.276 0.157-0.091 0.305-0.194 0.452-0.297 0.15-0.102 0.296-0.208 0.438-0.32 0.293-0.214 0.563-0.455 0.836-0.694l0.399-0.369c0.133-0.124 0.255-0.256 0.383-0.384 0.252-0.259 0.497-0.525 0.737-0.794 0.242-0.268 0.471-0.546 0.699-0.823 0.455-0.557 0.892-1.126 1.317-1.7 0.425-0.575 0.84-1.154 1.25-1.736l0.612-0.875c0.201-0.279 0.411-0.55 0.633-0.81 0.444-0.516 0.936-0.987 1.483-1.349 0.273-0.18 0.561-0.333 0.855-0.439 0.128-0.047 0.257-0.083 0.386-0.109-0.011 0.068-0.022 0.135-0.036 0.203-0.046 0.248-0.104 0.495-0.161 0.741-0.117 0.494-0.274 0.978-0.444 1.458-0.087 0.239-0.18 0.478-0.284 0.711-0.104 0.233-0.208 0.469-0.328 0.696-0.057 0.116-0.124 0.226-0.183 0.341-0.065 0.112-0.125 0.227-0.195 0.336-0.067 0.112-0.137 0.221-0.208 0.33-0.044 0.072-0.093 0.142-0.142 0.212-0.201 0.227-0.406 0.449-0.603 0.68-0.199 0.231-0.397 0.465-0.588 0.707 0.258-0.167 0.51-0.342 0.759-0.519 0.25-0.176 0.493-0.361 0.741-0.542 0.246-0.182 0.48-0.377 0.72-0.565 0.241-0.188 0.47-0.388 0.706-0.582 0.234-0.196 0.472-0.388 0.697-0.593 0.229-0.201 0.456-0.406 0.681-0.611 0.227-0.204 0.448-0.414 0.672-0.621 0.224-0.206 0.437-0.422 0.656-0.632l0.646-0.643c0.215-0.213 0.424-0.437 0.64-0.646 0.211-0.208 0.426-0.412 0.648-0.606 0.22-0.196 0.447-0.38 0.678-0.559 0.462-0.35 0.949-0.669 1.455-0.876 0.251-0.1 0.509-0.178 0.75-0.197 0.095-0.008 0.186-0.006 0.272 0.003l-0.101 0.252c-0.092 0.222-0.191 0.442-0.289 0.664-0.098 0.221-0.204 0.439-0.311 0.657l-0.335 0.648c-0.111 0.217-0.235 0.426-0.354 0.64-0.068 0.112-0.133 0.227-0.2 0.34l-0.294 0.292c-0.503 0.512-1.009 1.023-1.52 1.531-0.256 0.253-0.507 0.512-0.756 0.772-0.249 0.261-0.503 0.516-0.755 0.774-0.251 0.258-0.506 0.514-0.753 0.778-0.25 0.262-0.496 0.526-0.738 0.798 0.301-0.202 0.597-0.411 0.891-0.623 0.297-0.209 0.584-0.428 0.876-0.643 0.295-0.211 0.574-0.441 0.856-0.668 0.282-0.227 0.564-0.453 0.84-0.687l0.833-0.696 0.812-0.721 0.803-0.73c0.264-0.247 0.534-0.489 0.794-0.739 0.518-0.501 1.032-1.006 1.543-1.515 0.255-0.253 0.507-0.516 0.763-0.764 0.25-0.248 0.51-0.482 0.774-0.711 0.531-0.449 1.09-0.867 1.684-1.161 0.295-0.147 0.601-0.26 0.895-0.307 0.144-0.024 0.284-0.029 0.411-0.017l-0.097 0.249c-0.083 0.223-0.182 0.441-0.266 0.665-0.088 0.222-0.184 0.442-0.275 0.664l-0.285 0.662c-0.094 0.222-0.185 0.446-0.287 0.663-0.1 0.219-0.191 0.443-0.288 0.664l-0.183 0.417C71.318 64.526 70.024 65.602 68.713 66.655z" fill="#ffffff" data-fill-palette-color="accent"></path><path d="M34.467 74.544c0.109 0.026 0.165 0.04 0.165 0.04s-0.052-0.025-0.153-0.074c-0.101-0.05-0.248-0.124-0.434-0.232-0.187-0.104-0.414-0.239-0.657-0.422-0.243-0.182-0.51-0.407-0.744-0.704-0.236-0.293-0.445-0.652-0.563-1.079-0.119-0.425-0.168-0.909-0.124-1.433 0.045-0.523 0.146-1.084 0.309-1.671 0.166-0.584 0.369-1.198 0.602-1.837 0.235-0.638 0.501-1.299 0.766-1.992 0.268-0.691 0.558-1.404 0.822-2.154 0.263-0.748 0.578-1.521 0.746-2.386 0.042-0.216 0.075-0.439 0.089-0.675 0.011-0.236 0.009-0.484-0.07-0.763-0.042-0.138-0.107-0.288-0.224-0.427-0.114-0.139-0.289-0.248-0.461-0.295-0.35-0.088-0.634-0.009-0.875 0.074-0.479 0.184-0.857 0.459-1.216 0.752-0.355 0.296-0.681 0.622-0.985 0.967-0.309 0.353-0.57 0.698-0.861 1.032-0.293 0.338-0.587 0.677-0.882 1.018-1.193 1.36-2.406 2.753-3.549 4.207-1.145 1.45-2.222 2.965-3.13 4.554-0.451 0.797-0.864 1.61-1.194 2.45-0.162 0.421-0.316 0.844-0.432 1.277l-0.045 0.161c-0.008 0.029-0.015 0.049-0.023 0.085l-0.019 0.08-0.074 0.317c-0.053 0.209-0.095 0.426-0.135 0.643-0.326 1.723-0.359 3.427-0.173 5.013 0.188 1.587 0.579 3.053 1.059 4.353 0.487 1.3 1.05 2.442 1.605 3.418 0.555 0.978 1.103 1.792 1.572 2.445 0.471 0.654 0.862 1.151 1.134 1.485 0.274 0.332 0.421 0.51 0.421 0.51s-0.141-0.182-0.404-0.523c-0.262-0.342-0.636-0.852-1.084-1.519-0.449-0.666-0.963-1.496-1.491-2.48-0.526-0.984-1.054-2.131-1.5-3.427-0.438-1.297-0.795-2.745-0.943-4.302-0.15-1.555-0.076-3.219 0.271-4.877 0.041-0.206 0.085-0.414 0.142-0.625l0.08-0.317 0.02-0.08 0.021-0.072 0.046-0.154c0.117-0.411 0.273-0.815 0.436-1.218 0.333-0.806 0.749-1.591 1.204-2.36 0.914-1.539 2.006-3.007 3.153-4.429 1.149-1.423 2.369-2.788 3.58-4.134 0.302-0.339 0.603-0.677 0.902-1.013 0.302-0.338 0.586-0.701 0.866-1.012 0.285-0.317 0.589-0.612 0.91-0.873 0.319-0.256 0.663-0.487 0.993-0.608 0.161-0.061 0.319-0.075 0.386-0.053 0.033 0.013 0.047 0.02 0.068 0.046 0.021 0.025 0.046 0.071 0.064 0.136 0.037 0.13 0.046 0.31 0.035 0.49-0.012 0.183-0.042 0.374-0.08 0.563-0.078 0.381-0.192 0.761-0.318 1.134-0.064 0.188-0.128 0.365-0.201 0.555-0.071 0.181-0.15 0.366-0.226 0.546-0.31 0.722-0.599 1.433-0.882 2.122-0.287 0.688-0.545 1.364-0.773 2.025-0.231 0.659-0.432 1.305-0.569 1.94-0.138 0.633-0.234 1.254-0.226 1.852 0.004 0.594 0.094 1.168 0.298 1.658 0.202 0.491 0.496 0.89 0.808 1.183 0.636 0.584 1.261 0.81 1.669 0.953C34.195 74.476 34.359 74.518 34.467 74.544z" fill="#ffffff" data-fill-palette-color="accent"></path><path d="M56.949 21.168l-0.388 0.049 0.281 0.28 2.803 2.799-0.697 3.903-0.097 0.541 0.489-0.255 3.495-1.826 3.494 1.826 0.489 0.255-0.097-0.54-0.698-3.904 2.803-2.799 0.28-0.279-0.386-0.048c-1.334-0.167-2.667-0.344-4.003-0.501l-0.922-1.757c-0.314-0.605-0.639-1.206-0.96-1.807 0.282 0.622 0.561 1.244 0.85 1.861l0.86 1.856 0.023 0.051 0.061 0.01c1.216 0.211 2.434 0.405 3.651 0.605l-2.685 2.555-0.09 0.086 0.021 0.127 0.574 3.498-3.135-1.659-0.13-0.069-0.131 0.069-3.134 1.658 0.575-3.496 0.021-0.128-0.09-0.086-2.685-2.554c1.217-0.2 2.435-0.394 3.65-0.604l0.061-0.011 0.023-0.051 0.86-1.855c0.289-0.618 0.568-1.24 0.85-1.862-0.322 0.602-0.646 1.202-0.96 1.807l-0.922 1.757C59.616 20.823 58.283 21.001 56.949 21.168z" fill="#ffffff" data-fill-palette-color="accent"></path><path d="M39.592 46.828c4.166 3.927 9.611 6.09 15.333 6.09 6.226 0 12.005-2.494 16.274-7.022 2.653-2.815 4.538-6.279 5.451-10.018l0.481-1.971-0.998 1.767c-0.729 1.289-1.615 2.492-2.636 3.575-3.504 3.718-8.249 5.765-13.36 5.765-4.698 0-9.168-1.775-12.588-5-3.567-3.363-5.612-7.914-5.756-12.815-0.145-4.901 1.628-9.564 4.992-13.132 2.495-2.646 5.68-4.477 9.211-5.292l2-0.462-2.051-0.092c-0.335-0.015-0.675-0.023-1.011-0.023-6.226 0-12.005 2.494-16.273 7.022-4.097 4.345-6.256 10.026-6.081 15.996S35.247 42.731 39.592 46.828zM39.069 15.606c3.933-4.174 9.184-6.574 14.874-6.824-2.871 0.992-5.458 2.663-7.566 4.9-3.466 3.676-5.293 8.482-5.145 13.534 0.148 5.051 2.255 9.741 5.932 13.207 3.524 3.323 8.131 5.152 12.973 5.152 5.267 0 10.157-2.11 13.769-5.941 0.595-0.631 1.145-1.302 1.647-2.005-1.003 2.921-2.627 5.616-4.762 7.881-4.162 4.414-9.796 6.846-15.865 6.846-5.578 0-10.887-2.109-14.948-5.938-4.237-3.994-6.665-9.399-6.836-15.219C32.97 25.38 35.075 19.842 39.069 15.606z" fill="#ffffff" data-fill-palette-color="accent"></path></svg></g></svg></g></svg></g><defs></defs></svg><rect width="395.52" height="126.02711676530068" fill="none" stroke="none" visibility="hidden"></rect></g></svg></g></svg>